<?xml version="1.0" encoding="UTF-8" standalone="no"?>
<!-- Created with Inkscape (http://www.inkscape.org/) -->

<svg
   xmlns:dc="http://purl.org/dc/elements/1.1/"
   xmlns:cc="http://creativecommons.org/ns#"
   xmlns:rdf="http://www.w3.org/1999/02/22-rdf-syntax-ns#"
   xmlns:svg="http://www.w3.org/2000/svg"
   xmlns="http://www.w3.org/2000/svg"
   xmlns:sodipodi="http://sodipodi.sourceforge.net/DTD/sodipodi-0.dtd"
   xmlns:inkscape="http://www.inkscape.org/namespaces/inkscape"
   version="1.1"
   id="svg2"
   xml:space="preserve"
   width="1061"
   height="662"
   viewBox="0 0 1061 662"
   sodipodi:docname="mppaasync.svg"
   inkscape:version="0.92.5 (2060ec1f9f, 2020-04-08)"><metadata
     id="metadata8"><rdf:RDF><cc:Work
         rdf:about=""><dc:format>image/svg+xml</dc:format><dc:type
           rdf:resource="http://purl.org/dc/dcmitype/StillImage" /><dc:title></dc:title></cc:Work></rdf:RDF></metadata><defs
     id="defs6" /><sodipodi:namedview
     pagecolor="#ffffff"
     bordercolor="#666666"
     borderopacity="1"
     objecttolerance="10"
     gridtolerance="10"
     guidetolerance="10"
     inkscape:pageopacity="0"
     inkscape:pageshadow="2"
     inkscape:window-width="2488"
     inkscape:window-height="1016"
     id="namedview4"
     showgrid="false"
     inkscape:zoom="1.0083215"
     inkscape:cx="494.47045"
     inkscape:cy="201.99064"
     inkscape:window-x="72"
     inkscape:window-y="27"
     inkscape:window-maximized="1"
     inkscape:current-layer="g12" /><g
     id="g10"
     inkscape:groupmode="layer"
     inkscape:label="mppaasync"
     transform="matrix(1.3333333,0,0,1.3333333,0,1.655e-5)"><g
       id="g12"><path
         d="M 789.707,0.184 313.559,0.281 c -3.141,0 -5.68,2.528 -5.7,5.668 l -2.5,484.133 c -0.015,3.141 2.5,5.668 5.645,5.668 l 476.141,-0.098 c 3.14,0 5.683,-2.527 5.699,-5.668 l 2.5,-484.132 c 0.019,-3.141 -2.496,-5.668 -5.637,-5.668 z M 430.93,158.98 c 0.707,0.008 1.371,0.188 1.957,0.504 0.105,-0.007 0.211,-0.023 0.32,-0.023 2.148,0.004 4.715,1.699 6.586,5.531 1.016,2.082 1.672,4.703 3.293,6.477 7.082,7.746 -2.406,14.922 -8.481,6.359 -1.113,-1.566 -2.093,-3.207 -2.945,-4.914 -1.457,2.723 -0.984,2.152 -5.48,12.43 -1.856,4.98 -3.684,9.968 -5.559,14.941 -1.84,4.863 -3.844,9.664 -5.586,14.563 -1.652,4.652 -10.43,31.812 -11.695,35.601 -2.102,6.289 -4.332,12.535 -6.438,18.821 -2.011,5.996 -3.937,12.019 -5.906,18.027 -5.48,19.207 -10.902,38.344 -18.961,56.68 -3.691,8.398 -8.312,17.625 -14,25.003 -1.492,1.934 -3.469,3.442 -5.207,5.161 -7.453,7.39 -14.004,-0.817 -6.621,-8.278 1.441,-1.461 3.105,-2.734 4.332,-4.379 4.375,-5.867 9.293,-16.011 11.981,-22.179 7.742,-17.785 12.976,-36.309 18.281,-54.914 2.008,-6.141 3.972,-12.293 6.023,-18.422 2.117,-6.332 4.367,-12.617 6.485,-18.949 1.332,-3.989 9.972,-30.75 11.66,-35.504 1.797,-5.051 3.855,-10.008 5.75,-15.024 1.863,-4.941 3.679,-9.898 5.523,-14.847 6.254,-14.344 3.324,-8.516 8.246,-17.747 1.852,-3.472 4.328,-4.933 6.442,-4.918 z"
         style="fill:#b6afc7;fill-opacity:0.03921569;fill-rule:nonzero;stroke:none"
         id="path14"
         inkscape:connector-curvature="0" /><g
         id="g16"
         transform="matrix(0.00516487,-0.999987,1,-2.02136e-4,0,0)"><path
           d="M -490.151,307.891 -6.012,307.89 c 3.141,0.004 5.668,2.53 5.667,5.67 l 0.002,476.149 c -10e-4,3.14 -2.529,5.669 -5.669,5.666 h -484.14 c -3.14,10e-4 -5.667,-2.529 -5.666,-5.67 l -0.002,-476.144 c 10e-4,-3.141 2.529,-5.669 5.669,-5.67 z"
           style="fill:none;stroke:#000000;stroke-width:1.50001097;stroke-linecap:butt;stroke-linejoin:miter;stroke-miterlimit:4;stroke-dasharray:none;stroke-opacity:1"
           id="path18"
           inkscape:connector-curvature="0" /></g><g
         id="g20"
         transform="rotate(-90.011582)"><path
           d="m -392.163,398.979 41.16,0.001 c 3.141,0 5.668,2.532 5.667,5.673 v 41.16 c -10e-4,3.137 -2.529,5.667 -5.665,5.667 l -41.164,-0.001 c -3.145,0 -5.672,-2.528 -5.671,-5.669 v -41.16 c 0.001,-3.141 2.529,-5.671 5.673,-5.671 z"
           style="fill:#3e496a;fill-opacity:1;fill-rule:nonzero;stroke:#140000;stroke-width:1.5;stroke-linecap:butt;stroke-linejoin:miter;stroke-miterlimit:4;stroke-dasharray:none;stroke-opacity:1"
           id="path22"
           inkscape:connector-curvature="0" /></g><g
         id="g24"
         transform="rotate(-90.011582)"><path
           d="m -390.749,323.98 285.828,-0.001 c 3.926,0.001 7.085,3.161 7.085,7.091 v 38.324 c -0.001,3.926 -3.162,7.086 -7.084,7.085 l -285.832,0.001 c -3.922,-0.001 -7.085,-3.162 -7.084,-7.088 v -38.324 c 0,-3.93 3.161,-7.089 7.087,-7.088 z"
           style="fill:#3e496a;fill-opacity:1;fill-rule:nonzero;stroke:#140000;stroke-width:1.5;stroke-linecap:butt;stroke-linejoin:miter;stroke-miterlimit:4;stroke-dasharray:none;stroke-opacity:1"
           id="path26"
           inkscape:connector-curvature="0" /></g><g
         id="g28"
         transform="rotate(-90.011582)"><path
           d="m -467.163,398.98 h 41.16 c 3.141,10e-4 5.668,2.529 5.667,5.673 l 0.001,288.66 c -0.001,3.137 -2.529,5.668 -5.67,5.667 h -41.16 c -3.144,-10e-4 -5.671,-2.529 -5.67,-5.669 l -0.001,-288.66 c 0.001,-3.141 2.529,-5.672 5.673,-5.671 z"
           style="fill:#3e496a;fill-opacity:1;fill-rule:nonzero;stroke:#140000;stroke-width:1.5;stroke-linecap:butt;stroke-linejoin:miter;stroke-miterlimit:4;stroke-dasharray:none;stroke-opacity:1"
           id="path30"
           inkscape:connector-curvature="0" /></g><g
         id="g32"
         transform="rotate(-90.011582)"><path
           d="m -69.663,398.978 40.891,10e-4 c 3.141,0 5.671,2.532 5.671,5.673 v 288.66 c -0.001,3.14 -2.532,5.667 -5.673,5.667 l -40.891,-0.001 c -3.144,0.003 -5.671,-2.524 -5.67,-5.665 l -0.001,-288.66 c 0.001,-3.141 2.529,-5.672 5.673,-5.675 z"
           style="fill:#3e496a;fill-opacity:1;fill-rule:nonzero;stroke:#140000;stroke-width:1.5;stroke-linecap:butt;stroke-linejoin:miter;stroke-miterlimit:4;stroke-dasharray:none;stroke-opacity:1"
           id="path34"
           inkscape:connector-curvature="0" /></g><g
         id="g36"
         transform="rotate(-90.011582)"><path
           d="m -392.165,721.479 h 288.66 c 3.14,10e-4 5.671,2.532 5.671,5.673 l -10e-4,41.16 c -0.001,3.141 -2.528,5.668 -5.669,5.667 h -288.66 c -3.145,0 -5.672,-2.528 -5.671,-5.669 l 10e-4,-41.16 c 0,-3.141 2.524,-5.671 5.669,-5.671 z"
           style="fill:#3e496a;fill-opacity:1;fill-rule:nonzero;stroke:#140000;stroke-width:1.5;stroke-linecap:butt;stroke-linejoin:miter;stroke-miterlimit:4;stroke-dasharray:none;stroke-opacity:1"
           id="path38"
           inkscape:connector-curvature="0" /></g><g
         id="g40"
         transform="rotate(-90.011582)"><path
           d="m -392.164,481.479 41.16,0.001 c 3.141,0 5.668,2.532 5.667,5.673 l 0.004,41.16 c -10e-4,3.137 -2.529,5.667 -5.669,5.667 l -41.161,-10e-4 c -3.144,0 -5.671,-2.528 -5.67,-5.669 l -0.004,-41.16 c 10e-4,-3.141 2.529,-5.671 5.673,-5.671 z"
           style="fill:#3e496a;fill-opacity:1;fill-rule:nonzero;stroke:#140000;stroke-width:1.5;stroke-linecap:butt;stroke-linejoin:miter;stroke-miterlimit:4;stroke-dasharray:none;stroke-opacity:1"
           id="path42"
           inkscape:connector-curvature="0" /></g><g
         id="g44"
         transform="rotate(-90.011582)"><path
           d="m -392.165,563.979 41.16,10e-4 c 3.141,0 5.668,2.532 5.671,5.673 v 41.16 c -10e-4,3.137 -2.529,5.667 -5.67,5.667 l -41.16,-10e-4 c -3.144,0 -5.671,-2.528 -5.67,-5.669 v -41.16 c -0.003,-3.141 2.525,-5.671 5.669,-5.671 z"
           style="fill:#3e496a;fill-opacity:1;fill-rule:nonzero;stroke:#140000;stroke-width:1.5;stroke-linecap:butt;stroke-linejoin:miter;stroke-miterlimit:4;stroke-dasharray:none;stroke-opacity:1"
           id="path46"
           inkscape:connector-curvature="0" /></g><g
         id="g48"
         transform="rotate(-90.011582)"><path
           d="m -392.166,646.479 41.164,10e-4 c 3.137,0 5.668,2.532 5.667,5.673 v 41.16 c -0.001,3.137 -2.529,5.667 -5.67,5.667 l -41.16,-10e-4 c -3.144,0 -5.671,-2.528 -5.67,-5.669 v -41.16 c 10e-4,-3.141 2.529,-5.671 5.669,-5.671 z"
           style="fill:#3e496a;fill-opacity:1;fill-rule:nonzero;stroke:#140000;stroke-width:1.5;stroke-linecap:butt;stroke-linejoin:miter;stroke-miterlimit:4;stroke-dasharray:none;stroke-opacity:1"
           id="path50"
           inkscape:connector-curvature="0" /></g><g
         id="g52"
         transform="rotate(-90.011582)"><path
           d="m -309.663,398.98 41.16,10e-4 c 3.141,0.001 5.668,2.528 5.667,5.669 v 41.16 c -10e-4,3.141 -2.529,5.672 -5.665,5.671 l -41.164,-10e-4 c -3.145,0 -5.672,-2.528 -5.671,-5.669 v -41.16 c 0.001,-3.141 2.529,-5.671 5.673,-5.671 z"
           style="fill:#3e496a;fill-opacity:1;fill-rule:nonzero;stroke:#140000;stroke-width:1.5;stroke-linecap:butt;stroke-linejoin:miter;stroke-miterlimit:4;stroke-dasharray:none;stroke-opacity:1"
           id="path54"
           inkscape:connector-curvature="0" /></g><g
         id="g56"
         transform="rotate(-90.011582)"><path
           d="m -309.664,481.48 41.16,10e-4 c 3.141,0.001 5.668,2.528 5.667,5.669 l 0.004,41.16 c -10e-4,3.141 -2.529,5.672 -5.669,5.671 l -41.161,-10e-4 c -3.144,0 -5.671,-2.528 -5.67,-5.669 l -0.004,-41.16 c 10e-4,-3.141 2.529,-5.671 5.673,-5.671 z"
           style="fill:#3e496a;fill-opacity:1;fill-rule:nonzero;stroke:#140000;stroke-width:1.5;stroke-linecap:butt;stroke-linejoin:miter;stroke-miterlimit:4;stroke-dasharray:none;stroke-opacity:1"
           id="path58"
           inkscape:connector-curvature="0" /></g><g
         id="g60"
         transform="rotate(-90.011582)"><path
           d="m -309.665,563.98 41.16,10e-4 c 3.141,10e-4 5.668,2.528 5.671,5.669 v 41.16 c -10e-4,3.141 -2.529,5.672 -5.67,5.671 l -41.16,-10e-4 c -3.144,0 -5.671,-2.528 -5.67,-5.669 v -41.16 c -0.003,-3.141 2.525,-5.671 5.669,-5.671 z"
           style="fill:#3e496a;fill-opacity:1;fill-rule:nonzero;stroke:#140000;stroke-width:1.5;stroke-linecap:butt;stroke-linejoin:miter;stroke-miterlimit:4;stroke-dasharray:none;stroke-opacity:1"
           id="path62"
           inkscape:connector-curvature="0" /></g><g
         id="g64"
         transform="rotate(-90.011582)"><path
           d="m -309.666,646.48 41.164,10e-4 c 3.137,10e-4 5.668,2.528 5.667,5.669 v 41.16 c -0.001,3.141 -2.529,5.672 -5.67,5.671 l -41.16,-10e-4 c -3.144,0 -5.671,-2.528 -5.67,-5.669 v -41.16 c 10e-4,-3.141 2.529,-5.671 5.669,-5.671 z"
           style="fill:#3e496a;fill-opacity:1;fill-rule:nonzero;stroke:#140000;stroke-width:1.5;stroke-linecap:butt;stroke-linejoin:miter;stroke-miterlimit:4;stroke-dasharray:none;stroke-opacity:1"
           id="path66"
           inkscape:connector-curvature="0" /></g><g
         id="g68"
         transform="rotate(-90.011582)"><path
           d="m -227.163,398.981 41.16,-0.003 c 3.141,10e-4 5.668,2.532 5.667,5.673 v 41.16 c -10e-4,3.141 -2.529,5.668 -5.665,5.667 l -41.164,0.003 c -3.145,0 -5.672,-2.528 -5.671,-5.669 v -41.16 c 0.001,-3.14 2.529,-5.671 5.673,-5.671 z"
           style="fill:#3e496a;fill-opacity:1;fill-rule:nonzero;stroke:#140000;stroke-width:1.5;stroke-linecap:butt;stroke-linejoin:miter;stroke-miterlimit:4;stroke-dasharray:none;stroke-opacity:1"
           id="path70"
           inkscape:connector-curvature="0" /></g><g
         id="g72"
         transform="rotate(-90.011582)"><path
           d="m -227.164,481.481 41.16,-0.003 c 3.141,10e-4 5.668,2.532 5.667,5.673 l 0.004,41.16 c -0.001,3.141 -2.529,5.668 -5.669,5.667 l -41.161,0.003 c -3.144,0 -5.671,-2.528 -5.67,-5.669 l -0.004,-41.16 c 10e-4,-3.14 2.529,-5.671 5.673,-5.671 z"
           style="fill:#3e496a;fill-opacity:1;fill-rule:nonzero;stroke:#140000;stroke-width:1.5;stroke-linecap:butt;stroke-linejoin:miter;stroke-miterlimit:4;stroke-dasharray:none;stroke-opacity:1"
           id="path74"
           inkscape:connector-curvature="0" /></g><g
         id="g76"
         transform="rotate(-90.011582)"><path
           d="m -227.165,563.981 41.16,-0.003 c 3.141,0.001 5.668,2.532 5.671,5.673 v 41.16 c -0.001,3.141 -2.529,5.668 -5.67,5.667 l -41.16,0.003 c -3.144,0 -5.671,-2.528 -5.67,-5.669 v -41.16 c -0.003,-3.14 2.525,-5.671 5.669,-5.671 z"
           style="fill:#3e496a;fill-opacity:1;fill-rule:nonzero;stroke:#140000;stroke-width:1.5;stroke-linecap:butt;stroke-linejoin:miter;stroke-miterlimit:4;stroke-dasharray:none;stroke-opacity:1"
           id="path78"
           inkscape:connector-curvature="0" /></g><g
         id="g80"
         transform="rotate(-90.011582)"><path
           d="m -227.166,646.481 41.164,-0.003 c 3.137,0.001 5.668,2.532 5.667,5.673 v 41.16 c -0.001,3.141 -2.529,5.668 -5.67,5.667 l -41.16,0.003 c -3.144,0 -5.671,-2.528 -5.67,-5.669 v -41.16 c 0.001,-3.14 2.529,-5.671 5.669,-5.671 z"
           style="fill:#3e496a;fill-opacity:1;fill-rule:nonzero;stroke:#140000;stroke-width:1.5;stroke-linecap:butt;stroke-linejoin:miter;stroke-miterlimit:4;stroke-dasharray:none;stroke-opacity:1"
           id="path82"
           inkscape:connector-curvature="0" /></g><g
         id="g84"
         transform="rotate(-90.011582)"><path
           d="m -144.663,398.979 h 41.16 c 3.141,0.001 5.668,2.532 5.667,5.673 v 41.16 c -0.001,3.141 -2.529,5.668 -5.665,5.667 h -41.164 c -3.145,-10e-4 -5.672,-2.529 -5.671,-5.666 v -41.16 c 0.001,-3.14 2.529,-5.675 5.673,-5.674 z"
           style="fill:#3e496a;fill-opacity:1;fill-rule:nonzero;stroke:#140000;stroke-width:1.5;stroke-linecap:butt;stroke-linejoin:miter;stroke-miterlimit:4;stroke-dasharray:none;stroke-opacity:1"
           id="path86"
           inkscape:connector-curvature="0" /></g><g
         id="g88"
         transform="rotate(-90.011582)"><path
           d="m -144.664,481.479 h 41.16 c 3.141,0.001 5.668,2.532 5.667,5.673 l 0.004,41.16 c -0.001,3.141 -2.529,5.668 -5.669,5.667 h -41.161 c -3.144,-0.001 -5.671,-2.529 -5.67,-5.666 l -0.004,-41.16 c 10e-4,-3.14 2.529,-5.675 5.673,-5.674 z"
           style="fill:#3e496a;fill-opacity:1;fill-rule:nonzero;stroke:#140000;stroke-width:1.5;stroke-linecap:butt;stroke-linejoin:miter;stroke-miterlimit:4;stroke-dasharray:none;stroke-opacity:1"
           id="path90"
           inkscape:connector-curvature="0" /></g><g
         id="g92"
         transform="rotate(-90.011582)"><path
           d="m -144.665,563.979 h 41.16 c 3.141,10e-4 5.668,2.532 5.671,5.673 v 41.16 c -10e-4,3.141 -2.529,5.668 -5.67,5.667 h -41.16 c -3.144,-0.001 -5.671,-2.529 -5.67,-5.666 v -41.16 c -0.003,-3.14 2.525,-5.675 5.669,-5.674 z"
           style="fill:#3e496a;fill-opacity:1;fill-rule:nonzero;stroke:#140000;stroke-width:1.5;stroke-linecap:butt;stroke-linejoin:miter;stroke-miterlimit:4;stroke-dasharray:none;stroke-opacity:1"
           id="path94"
           inkscape:connector-curvature="0" /></g><g
         id="g96"
         transform="rotate(-90.011582)"><path
           d="m -144.666,646.479 h 41.164 c 3.137,10e-4 5.668,2.532 5.667,5.673 v 41.16 c -0.001,3.141 -2.529,5.668 -5.67,5.667 h -41.16 c -3.144,-0.001 -5.671,-2.529 -5.67,-5.666 v -41.16 c 0.001,-3.14 2.529,-5.675 5.669,-5.674 z"
           style="fill:#3e496a;fill-opacity:1;fill-rule:nonzero;stroke:#140000;stroke-width:1.5;stroke-linecap:butt;stroke-linejoin:miter;stroke-miterlimit:4;stroke-dasharray:none;stroke-opacity:1"
           id="path98"
           inkscape:connector-curvature="0" /></g><g
         id="g100"
         transform="rotate(-90.011582)"><path
           d="m -289.086,407.231 c 55.546,-36.349 21.625,-134.019 -10e-4,-75"
           style="fill:none;stroke:#000000;stroke-width:3;stroke-linecap:butt;stroke-linejoin:miter;stroke-miterlimit:4;stroke-dasharray:none;stroke-opacity:1"
           id="path102"
           inkscape:connector-curvature="0" /></g><g
         id="g104"
         transform="rotate(-90.011582)"><path
           d="m -289.082,369.223 c -47.786,39.182 -52.177,79.259 -0.001,120.508"
           style="fill:none;stroke:#000000;stroke-width:3;stroke-linecap:butt;stroke-linejoin:miter;stroke-miterlimit:4;stroke-dasharray:none;stroke-opacity:1"
           id="path106"
           inkscape:connector-curvature="0" /></g><g
         id="g108"
         transform="rotate(-90.011582)"><path
           d="m -289.087,527.981 c -47.786,41.213 -52.173,83.364 0.002,126.75"
           style="fill:none;stroke:#000000;stroke-width:3;stroke-linecap:butt;stroke-linejoin:miter;stroke-miterlimit:4;stroke-dasharray:none;stroke-opacity:1"
           id="path110"
           inkscape:connector-curvature="0" /></g><g
         id="g112"
         transform="rotate(-90.011582)"><path
           d="m -289.09,445.348 c 47.785,41.252 52.175,83.452 0.002,126.883"
           style="fill:none;stroke:#000000;stroke-width:3;stroke-linecap:butt;stroke-linejoin:miter;stroke-miterlimit:4;stroke-dasharray:none;stroke-opacity:1"
           id="path114"
           inkscape:connector-curvature="0" /></g><g
         id="g116"
         transform="rotate(-90.011582)"><path
           d="m -384.665,331.481 26.16,-0.003 c 3.141,10e-4 5.668,2.533 5.671,5.673 l -10e-4,26.16 c -0.001,3.141 -2.529,5.668 -5.669,5.667 l -26.16,0.003 c -3.145,-10e-4 -5.672,-2.529 -5.671,-5.669 l 10e-4,-26.16 c -0.003,-3.141 2.525,-5.672 5.669,-5.671 z"
           style="fill:#ffeeaa;fill-opacity:1;fill-rule:nonzero;stroke:#140000;stroke-width:1.5;stroke-linecap:butt;stroke-linejoin:miter;stroke-miterlimit:4;stroke-dasharray:none;stroke-opacity:1"
           id="path118"
           inkscape:connector-curvature="0" /></g><g
         id="g120"
         transform="rotate(-90.011582)"><path
           d="m -384.663,728.981 26.16,-0.003 c 3.141,0.001 5.668,2.533 5.667,5.673 l 0.003,26.16 c -10e-4,3.141 -2.529,5.668 -5.67,5.667 l -26.16,0.003 c -3.144,-10e-4 -5.671,-2.529 -5.67,-5.669 l -0.003,-26.16 c 0.001,-3.141 2.528,-5.672 5.673,-5.671 z"
           style="fill:#ffeeaa;fill-opacity:1;fill-rule:nonzero;stroke:#140000;stroke-width:1.5;stroke-linecap:butt;stroke-linejoin:miter;stroke-miterlimit:4;stroke-dasharray:none;stroke-opacity:1"
           id="path122"
           inkscape:connector-curvature="0" /></g><g
         id="g124"
         transform="rotate(-90.011582)"><path
           d="m -302.165,331.478 26.16,10e-4 c 3.141,0.001 5.668,2.533 5.671,5.673 l -10e-4,26.161 c -0.001,3.14 -2.529,5.667 -5.669,5.666 l -26.16,-10e-4 c -3.145,0.003 -5.672,-2.525 -5.671,-5.665 l 10e-4,-26.16 c -0.003,-3.141 2.525,-5.672 5.669,-5.675 z"
           style="fill:#ffeeaa;fill-opacity:1;fill-rule:nonzero;stroke:#140000;stroke-width:1.5;stroke-linecap:butt;stroke-linejoin:miter;stroke-miterlimit:4;stroke-dasharray:none;stroke-opacity:1"
           id="path126"
           inkscape:connector-curvature="0" /></g><g
         id="g128"
         transform="rotate(-90.011582)"><path
           d="m -302.163,728.978 26.16,0.001 c 3.141,10e-4 5.668,2.533 5.667,5.673 l 0.003,26.161 c -10e-4,3.14 -2.529,5.667 -5.67,5.666 l -26.16,-0.001 c -3.144,0.003 -5.671,-2.525 -5.67,-5.665 l -0.003,-26.16 c 0.001,-3.141 2.528,-5.672 5.673,-5.675 z"
           style="fill:#ffeeaa;fill-opacity:1;fill-rule:nonzero;stroke:#140000;stroke-width:1.5;stroke-linecap:butt;stroke-linejoin:miter;stroke-miterlimit:4;stroke-dasharray:none;stroke-opacity:1"
           id="path130"
           inkscape:connector-curvature="0" /></g><g
         id="g132"
         transform="rotate(-90.011582)"><path
           d="m -219.665,331.479 26.16,0.001 c 3.141,10e-4 5.668,2.529 5.671,5.673 l -0.001,26.161 c -0.001,3.136 -2.529,5.667 -5.669,5.666 l -26.16,-0.001 c -3.145,-10e-4 -5.672,-2.528 -5.671,-5.669 l 0.001,-26.16 c -0.003,-3.141 2.525,-5.672 5.669,-5.671 z"
           style="fill:#ffeeaa;fill-opacity:1;fill-rule:nonzero;stroke:#140000;stroke-width:1.5;stroke-linecap:butt;stroke-linejoin:miter;stroke-miterlimit:4;stroke-dasharray:none;stroke-opacity:1"
           id="path134"
           inkscape:connector-curvature="0" /></g><g
         id="g136"
         transform="rotate(-90.011582)"><path
           d="m -219.663,728.979 26.16,10e-4 c 3.141,10e-4 5.668,2.529 5.667,5.673 l 0.003,26.157 c -0.001,3.14 -2.529,5.671 -5.67,5.67 l -26.16,-10e-4 c -3.144,-0.001 -5.671,-2.528 -5.67,-5.669 l -0.003,-26.16 c 0.001,-3.141 2.528,-5.672 5.673,-5.671 z"
           style="fill:#ffeeaa;fill-opacity:1;fill-rule:nonzero;stroke:#140000;stroke-width:1.5;stroke-linecap:butt;stroke-linejoin:miter;stroke-miterlimit:4;stroke-dasharray:none;stroke-opacity:1"
           id="path138"
           inkscape:connector-curvature="0" /></g><g
         id="g140"
         transform="rotate(-90.011582)"><path
           d="m -137.165,331.48 26.16,10e-4 c 3.141,-0.003 5.668,2.529 5.671,5.67 l -10e-4,26.16 c -0.001,3.14 -2.529,5.667 -5.669,5.67 l -26.16,-10e-4 c -3.145,-0.001 -5.672,-2.528 -5.671,-5.669 l 0.001,-26.16 c -0.003,-3.141 2.525,-5.672 5.669,-5.671 z"
           style="fill:#ffeeaa;fill-opacity:1;fill-rule:nonzero;stroke:#140000;stroke-width:1.5;stroke-linecap:butt;stroke-linejoin:miter;stroke-miterlimit:4;stroke-dasharray:none;stroke-opacity:1"
           id="path142"
           inkscape:connector-curvature="0" /></g><g
         id="g144"
         transform="rotate(-90.011582)"><path
           d="m -137.163,728.98 26.16,10e-4 c 3.141,-0.003 5.668,2.529 5.667,5.67 l 0.003,26.16 c -0.001,3.14 -2.529,5.667 -5.67,5.67 l -26.16,-10e-4 c -3.144,-10e-4 -5.671,-2.528 -5.67,-5.669 l -0.003,-26.16 c 0.001,-3.141 2.528,-5.672 5.673,-5.671 z"
           style="fill:#ffeeaa;fill-opacity:1;fill-rule:nonzero;stroke:#140000;stroke-width:1.5;stroke-linecap:butt;stroke-linejoin:miter;stroke-miterlimit:4;stroke-dasharray:none;stroke-opacity:1"
           id="path146"
           inkscape:connector-curvature="0" /></g><g
         id="g148"
         transform="rotate(-90.011582)"><path
           d="m -459.664,406.481 26.16,-0.002 c 3.141,0 5.667,2.532 5.671,5.673 l -0.002,26.777 c 0,3.141 -2.528,5.668 -5.669,5.667 l -26.16,0.002 c -3.145,0 -5.671,-2.528 -5.671,-5.669 l 0.002,-26.777 c -0.004,-3.141 2.524,-5.671 5.669,-5.671 z"
           style="fill:#ffeeaa;fill-opacity:1;fill-rule:nonzero;stroke:#140000;stroke-width:1.5;stroke-linecap:butt;stroke-linejoin:miter;stroke-miterlimit:4;stroke-dasharray:none;stroke-opacity:1"
           id="path150"
           inkscape:connector-curvature="0" /></g><g
         id="g152"
         transform="rotate(-90.011582)"><path
           d="m -459.665,488.981 26.16,-0.002 c 3.141,0 5.671,2.532 5.671,5.673 l -0.002,26.777 c -10e-4,3.141 -2.528,5.668 -5.669,5.667 l -26.16,0.002 c -3.145,0 -5.672,-2.528 -5.671,-5.669 l 0.002,-26.777 c 0,-3.141 2.524,-5.671 5.669,-5.671 z"
           style="fill:#ffeeaa;fill-opacity:1;fill-rule:nonzero;stroke:#140000;stroke-width:1.5;stroke-linecap:butt;stroke-linejoin:miter;stroke-miterlimit:4;stroke-dasharray:none;stroke-opacity:1"
           id="path154"
           inkscape:connector-curvature="0" /></g><g
         id="g156"
         transform="rotate(-90.011582)"><path
           d="m -459.662,571.481 26.16,-0.002 c 3.14,0 5.667,2.532 5.667,5.673 l -0.002,26.777 c 0.003,3.141 -2.525,5.668 -5.665,5.667 l -26.164,0.002 c -3.141,0 -5.668,-2.528 -5.671,-5.669 l 0.002,-26.777 c 0,-3.141 2.528,-5.671 5.673,-5.671 z"
           style="fill:#ffeeaa;fill-opacity:1;fill-rule:nonzero;stroke:#140000;stroke-width:1.5;stroke-linecap:butt;stroke-linejoin:miter;stroke-miterlimit:4;stroke-dasharray:none;stroke-opacity:1"
           id="path158"
           inkscape:connector-curvature="0" /></g><g
         id="g160"
         transform="rotate(-90.011582)"><path
           d="m -459.663,653.981 26.16,-0.002 c 3.14,0 5.667,2.532 5.667,5.673 l 0.002,26.777 c -10e-4,3.141 -2.529,5.668 -5.669,5.667 l -26.16,0.002 c -3.145,0 -5.672,-2.528 -5.671,-5.669 l -0.002,-26.777 c 0,-3.141 2.528,-5.671 5.673,-5.671 z"
           style="fill:#ffeeaa;fill-opacity:1;fill-rule:nonzero;stroke:#140000;stroke-width:1.5;stroke-linecap:butt;stroke-linejoin:miter;stroke-miterlimit:4;stroke-dasharray:none;stroke-opacity:1"
           id="path162"
           inkscape:connector-curvature="0" /></g><g
         id="g164"
         transform="rotate(-90.011582)"><path
           d="m -62.164,406.48 26.16,10e-4 c 3.141,-0.003 5.667,2.528 5.671,5.669 l -0.002,26.777 c 0,3.141 -2.528,5.668 -5.669,5.671 l -26.16,-0.001 c -3.145,-10e-4 -5.671,-2.529 -5.671,-5.669 l 0.002,-26.778 c -0.004,-3.14 2.524,-5.671 5.669,-5.67 z"
           style="fill:#ffeeaa;fill-opacity:1;fill-rule:nonzero;stroke:#140000;stroke-width:1.5;stroke-linecap:butt;stroke-linejoin:miter;stroke-miterlimit:4;stroke-dasharray:none;stroke-opacity:1"
           id="path166"
           inkscape:connector-curvature="0" /></g><g
         id="g168"
         transform="rotate(-90.011582)"><path
           d="m -62.165,488.98 26.16,10e-4 c 3.141,-0.003 5.671,2.528 5.671,5.669 l -0.002,26.777 c -0.001,3.141 -2.528,5.668 -5.669,5.671 l -26.16,-10e-4 c -3.145,-10e-4 -5.672,-2.529 -5.671,-5.669 l 0.002,-26.778 c 0,-3.14 2.524,-5.671 5.669,-5.67 z"
           style="fill:#ffeeaa;fill-opacity:1;fill-rule:nonzero;stroke:#140000;stroke-width:1.5;stroke-linecap:butt;stroke-linejoin:miter;stroke-miterlimit:4;stroke-dasharray:none;stroke-opacity:1"
           id="path170"
           inkscape:connector-curvature="0" /></g><g
         id="g172"
         transform="rotate(-90.011582)"><path
           d="m -62.162,571.48 26.16,10e-4 c 3.14,-0.003 5.667,2.528 5.667,5.669 l -0.002,26.777 c 0.003,3.141 -2.525,5.668 -5.665,5.671 l -26.164,-10e-4 c -3.141,-10e-4 -5.668,-2.529 -5.671,-5.669 l 0.002,-26.778 c 0,-3.14 2.528,-5.671 5.673,-5.67 z"
           style="fill:#ffeeaa;fill-opacity:1;fill-rule:nonzero;stroke:#140000;stroke-width:1.5;stroke-linecap:butt;stroke-linejoin:miter;stroke-miterlimit:4;stroke-dasharray:none;stroke-opacity:1"
           id="path174"
           inkscape:connector-curvature="0" /></g><g
         id="g176"
         transform="rotate(-90.011582)"><path
           d="m -62.163,653.98 26.16,10e-4 c 3.14,-0.003 5.667,2.528 5.667,5.669 l 0.002,26.777 c -0.001,3.141 -2.529,5.668 -5.669,5.671 l -26.16,-10e-4 c -3.145,-10e-4 -5.672,-2.529 -5.671,-5.669 l -0.002,-26.778 c 0,-3.14 2.528,-5.671 5.673,-5.67 z"
           style="fill:#ffeeaa;fill-opacity:1;fill-rule:nonzero;stroke:#140000;stroke-width:1.5;stroke-linecap:butt;stroke-linejoin:miter;stroke-miterlimit:4;stroke-dasharray:none;stroke-opacity:1"
           id="path178"
           inkscape:connector-curvature="0" /></g><g
         id="g180"
         transform="rotate(-90.011582)"><path
           d="m -384.664,406.481 26.16,-0.003 c 3.141,10e-4 5.667,2.533 5.671,5.673 l -0.002,26.778 c 0,3.14 -2.528,5.667 -5.669,5.666 l -26.16,0.003 c -3.145,-0.001 -5.671,-2.528 -5.671,-5.669 l 0.002,-26.777 c -0.004,-3.141 2.524,-5.672 5.669,-5.671 z"
           style="fill:#ffeeaa;fill-opacity:1;fill-rule:nonzero;stroke:#140000;stroke-width:1.5;stroke-linecap:butt;stroke-linejoin:miter;stroke-miterlimit:4;stroke-dasharray:none;stroke-opacity:1"
           id="path182"
           inkscape:connector-curvature="0" /></g><g
         id="g184"
         transform="rotate(-90.011582)"><path
           d="m -384.665,488.981 26.16,-0.003 c 3.141,10e-4 5.671,2.533 5.671,5.673 l -0.002,26.778 c -10e-4,3.14 -2.528,5.667 -5.669,5.666 l -26.16,0.003 c -3.145,-10e-4 -5.672,-2.528 -5.671,-5.669 l 0.002,-26.777 c 0,-3.141 2.524,-5.672 5.669,-5.671 z"
           style="fill:#ffeeaa;fill-opacity:1;fill-rule:nonzero;stroke:#140000;stroke-width:1.5;stroke-linecap:butt;stroke-linejoin:miter;stroke-miterlimit:4;stroke-dasharray:none;stroke-opacity:1"
           id="path186"
           inkscape:connector-curvature="0" /></g><g
         id="g188"
         transform="rotate(-90.011582)"><path
           d="m -384.662,571.481 26.16,-0.003 c 3.14,0.001 5.667,2.533 5.667,5.673 l -0.002,26.778 c 0.003,3.14 -2.525,5.667 -5.665,5.666 l -26.164,0.003 c -3.141,-10e-4 -5.668,-2.528 -5.671,-5.669 l 0.002,-26.777 c 0,-3.141 2.528,-5.672 5.673,-5.671 z"
           style="fill:#ffeeaa;fill-opacity:1;fill-rule:nonzero;stroke:#140000;stroke-width:1.5;stroke-linecap:butt;stroke-linejoin:miter;stroke-miterlimit:4;stroke-dasharray:none;stroke-opacity:1"
           id="path190"
           inkscape:connector-curvature="0" /></g><g
         id="g192"
         transform="rotate(-90.011582)"><path
           d="m -384.663,653.981 26.16,-0.003 c 3.14,0.001 5.667,2.533 5.667,5.673 l 0.002,26.778 c -10e-4,3.14 -2.529,5.667 -5.669,5.666 l -26.16,0.003 c -3.145,-10e-4 -5.672,-2.528 -5.671,-5.669 l -0.002,-26.777 c 0,-3.141 2.528,-5.672 5.673,-5.671 z"
           style="fill:#ffeeaa;fill-opacity:1;fill-rule:nonzero;stroke:#140000;stroke-width:1.5;stroke-linecap:butt;stroke-linejoin:miter;stroke-miterlimit:4;stroke-dasharray:none;stroke-opacity:1"
           id="path194"
           inkscape:connector-curvature="0" /></g><g
         id="g196"
         transform="rotate(-90.011582)"><path
           d="m -302.164,406.478 26.16,10e-4 c 3.141,0.001 5.667,2.533 5.671,5.673 l -0.002,26.778 c 0,3.14 -2.528,5.667 -5.669,5.667 l -26.16,-0.002 c -3.145,0.003 -5.671,-2.524 -5.671,-5.665 l 0.002,-26.777 c -0.004,-3.141 2.524,-5.672 5.669,-5.675 z"
           style="fill:#ffeeaa;fill-opacity:1;fill-rule:nonzero;stroke:#140000;stroke-width:1.5;stroke-linecap:butt;stroke-linejoin:miter;stroke-miterlimit:4;stroke-dasharray:none;stroke-opacity:1"
           id="path198"
           inkscape:connector-curvature="0" /></g><g
         id="g200"
         transform="rotate(-90.011582)"><path
           d="m -302.165,488.978 26.16,10e-4 c 3.141,0.001 5.671,2.533 5.671,5.673 l -0.002,26.778 c -10e-4,3.14 -2.528,5.667 -5.669,5.667 l -26.16,-0.002 c -3.145,0.003 -5.672,-2.524 -5.671,-5.665 l 0.002,-26.777 c 0,-3.141 2.524,-5.672 5.669,-5.675 z"
           style="fill:#ffeeaa;fill-opacity:1;fill-rule:nonzero;stroke:#140000;stroke-width:1.5;stroke-linecap:butt;stroke-linejoin:miter;stroke-miterlimit:4;stroke-dasharray:none;stroke-opacity:1"
           id="path202"
           inkscape:connector-curvature="0" /></g><g
         id="g204"
         transform="rotate(-90.011582)"><path
           d="m -302.162,571.478 26.16,0.001 c 3.14,10e-4 5.667,2.533 5.667,5.673 l -0.002,26.778 c 0.003,3.14 -2.525,5.667 -5.665,5.667 l -26.164,-0.002 c -3.141,0.003 -5.668,-2.524 -5.671,-5.665 l 0.002,-26.777 c 0,-3.141 2.528,-5.672 5.673,-5.675 z"
           style="fill:#ffeeaa;fill-opacity:1;fill-rule:nonzero;stroke:#140000;stroke-width:1.5;stroke-linecap:butt;stroke-linejoin:miter;stroke-miterlimit:4;stroke-dasharray:none;stroke-opacity:1"
           id="path206"
           inkscape:connector-curvature="0" /></g><g
         id="g208"
         transform="rotate(-90.011582)"><path
           d="m -302.163,653.978 26.16,0.001 c 3.14,10e-4 5.667,2.533 5.667,5.673 l 0.002,26.778 c -10e-4,3.14 -2.529,5.667 -5.669,5.667 l -26.16,-0.002 c -3.145,0.003 -5.672,-2.524 -5.671,-5.665 l -0.002,-26.777 c 0,-3.141 2.528,-5.672 5.673,-5.675 z"
           style="fill:#ffeeaa;fill-opacity:1;fill-rule:nonzero;stroke:#140000;stroke-width:1.5;stroke-linecap:butt;stroke-linejoin:miter;stroke-miterlimit:4;stroke-dasharray:none;stroke-opacity:1"
           id="path210"
           inkscape:connector-curvature="0" /></g><g
         id="g212"
         transform="rotate(-90.011582)"><path
           d="m -219.664,406.479 26.16,0.001 c 3.141,10e-4 5.667,2.529 5.671,5.673 l -0.002,26.774 c 0,3.14 -2.528,5.671 -5.669,5.671 l -26.16,-0.002 c -3.145,0 -5.671,-2.528 -5.671,-5.669 l 0.002,-26.777 c -0.004,-3.141 2.524,-5.672 5.669,-5.671 z"
           style="fill:#ffeeaa;fill-opacity:1;fill-rule:nonzero;stroke:#140000;stroke-width:1.5;stroke-linecap:butt;stroke-linejoin:miter;stroke-miterlimit:4;stroke-dasharray:none;stroke-opacity:1"
           id="path214"
           inkscape:connector-curvature="0" /></g><g
         id="g216"
         transform="rotate(-90.011582)"><path
           d="m -219.665,488.979 26.16,0.001 c 3.141,10e-4 5.671,2.529 5.671,5.673 l -0.002,26.774 c -10e-4,3.14 -2.528,5.671 -5.669,5.671 l -26.16,-0.002 c -3.145,0 -5.672,-2.528 -5.671,-5.669 l 0.002,-26.777 c 0,-3.141 2.524,-5.672 5.669,-5.671 z"
           style="fill:#ffeeaa;fill-opacity:1;fill-rule:nonzero;stroke:#140000;stroke-width:1.5;stroke-linecap:butt;stroke-linejoin:miter;stroke-miterlimit:4;stroke-dasharray:none;stroke-opacity:1"
           id="path218"
           inkscape:connector-curvature="0" /></g><g
         id="g220"
         transform="rotate(-90.011582)"><path
           d="m -219.662,571.479 26.16,10e-4 c 3.14,10e-4 5.667,2.529 5.667,5.673 l -0.002,26.774 c 0.003,3.14 -2.525,5.671 -5.665,5.671 l -26.164,-0.002 c -3.141,0 -5.668,-2.528 -5.671,-5.669 l 0.002,-26.777 c 0,-3.141 2.528,-5.672 5.673,-5.671 z"
           style="fill:#ffeeaa;fill-opacity:1;fill-rule:nonzero;stroke:#140000;stroke-width:1.5;stroke-linecap:butt;stroke-linejoin:miter;stroke-miterlimit:4;stroke-dasharray:none;stroke-opacity:1"
           id="path222"
           inkscape:connector-curvature="0" /></g><g
         id="g224"
         transform="rotate(-90.011582)"><path
           d="m -219.663,653.979 26.16,10e-4 c 3.14,10e-4 5.667,2.529 5.667,5.673 l 0.002,26.774 c -0.001,3.14 -2.529,5.671 -5.669,5.671 l -26.16,-0.002 c -3.145,0 -5.672,-2.528 -5.671,-5.669 l -0.002,-26.777 c 0,-3.141 2.528,-5.672 5.673,-5.671 z"
           style="fill:#ffeeaa;fill-opacity:1;fill-rule:nonzero;stroke:#140000;stroke-width:1.5;stroke-linecap:butt;stroke-linejoin:miter;stroke-miterlimit:4;stroke-dasharray:none;stroke-opacity:1"
           id="path226"
           inkscape:connector-curvature="0" /></g><g
         id="g228"
         transform="rotate(-90.011582)"><path
           d="m -137.164,406.48 26.16,10e-4 c 3.141,-0.003 5.667,2.529 5.671,5.67 l -0.002,26.777 c 0,3.141 -2.528,5.667 -5.669,5.667 l -26.16,0.002 c -3.145,0 -5.671,-2.528 -5.671,-5.669 l 0.002,-26.777 c -0.004,-3.141 2.524,-5.672 5.669,-5.671 z"
           style="fill:#ffeeaa;fill-opacity:1;fill-rule:nonzero;stroke:#140000;stroke-width:1.5;stroke-linecap:butt;stroke-linejoin:miter;stroke-miterlimit:4;stroke-dasharray:none;stroke-opacity:1"
           id="path230"
           inkscape:connector-curvature="0" /></g><g
         id="g232"
         transform="rotate(-90.011582)"><path
           d="m -137.165,488.98 26.16,10e-4 c 3.141,-0.003 5.671,2.529 5.671,5.67 l -0.002,26.777 c -0.001,3.141 -2.528,5.667 -5.669,5.667 l -26.16,0.002 c -3.145,0 -5.672,-2.528 -5.671,-5.669 l 0.002,-26.777 c 0,-3.141 2.524,-5.672 5.669,-5.671 z"
           style="fill:#ffeeaa;fill-opacity:1;fill-rule:nonzero;stroke:#140000;stroke-width:1.5;stroke-linecap:butt;stroke-linejoin:miter;stroke-miterlimit:4;stroke-dasharray:none;stroke-opacity:1"
           id="path234"
           inkscape:connector-curvature="0" /></g><g
         id="g236"
         transform="rotate(-90.011582)"><path
           d="m -137.162,571.48 26.16,10e-4 c 3.14,-0.003 5.667,2.529 5.667,5.67 l -0.002,26.777 c 0.003,3.141 -2.525,5.667 -5.665,5.667 l -26.164,0.002 c -3.141,0 -5.668,-2.528 -5.671,-5.669 l 0.002,-26.777 c 0,-3.141 2.528,-5.672 5.673,-5.671 z"
           style="fill:#ffeeaa;fill-opacity:1;fill-rule:nonzero;stroke:#140000;stroke-width:1.5;stroke-linecap:butt;stroke-linejoin:miter;stroke-miterlimit:4;stroke-dasharray:none;stroke-opacity:1"
           id="path238"
           inkscape:connector-curvature="0" /></g><g
         id="g240"
         transform="rotate(-90.011582)"><path
           d="m -137.163,653.98 26.16,10e-4 c 3.14,-0.003 5.667,2.529 5.667,5.67 l 0.002,26.777 c -10e-4,3.141 -2.529,5.667 -5.669,5.667 l -26.16,0.002 c -3.145,0 -5.672,-2.528 -5.671,-5.669 l -0.002,-26.777 c 0,-3.141 2.528,-5.672 5.673,-5.671 z"
           style="fill:#ffeeaa;fill-opacity:1;fill-rule:nonzero;stroke:#140000;stroke-width:1.5;stroke-linecap:butt;stroke-linejoin:miter;stroke-miterlimit:4;stroke-dasharray:none;stroke-opacity:1"
           id="path242"
           inkscape:connector-curvature="0" /></g><g
         id="g244"
         transform="rotate(-90.011582)"><path
           d="m -403.415,312.731 h 311.16 c 3.141,-0.003 5.668,2.529 5.671,5.669 l -10e-4,63.661 c -0.001,3.14 -2.529,5.667 -5.669,5.67 h -311.16 c -3.141,-10e-4 -5.672,-2.529 -5.671,-5.669 l 10e-4,-63.66 c -0.003,-3.141 2.529,-5.672 5.669,-5.671 z"
           style="fill:none;stroke:#000000;stroke-width:2;stroke-linecap:butt;stroke-linejoin:miter;stroke-miterlimit:4;stroke-dasharray:4, 2;stroke-dashoffset:0;stroke-opacity:1"
           id="path246"
           inkscape:connector-curvature="0" /></g><g
         id="g248"
         transform="rotate(-90.011582)"><path
           d="m -320.511,634.013 63.66,-0.002 c 3.141,0 5.668,2.532 5.667,5.673 l -0.001,63.66 c 0.003,3.14 -2.525,5.667 -5.665,5.667 l -63.664,0.002 c -3.137,0 -5.668,-2.528 -5.671,-5.669 l 10e-4,-63.66 c 0.001,-3.141 2.532,-5.671 5.673,-5.671 z"
           style="fill:none;stroke:#000000;stroke-width:2;stroke-linecap:butt;stroke-linejoin:miter;stroke-miterlimit:4;stroke-dasharray:4, 2;stroke-dashoffset:0;stroke-opacity:1"
           id="path250"
           inkscape:connector-curvature="0" /></g><g
         id="g252"><path
           d="m 269.93,244.016 c 33.75,0 33.75,0 33.75,0"
           style="fill:none;stroke:#000000;stroke-width:1;stroke-linecap:butt;stroke-linejoin:miter;stroke-miterlimit:4;stroke-dasharray:none;stroke-opacity:1"
           id="path254"
           inkscape:connector-curvature="0" /></g><g
         id="g256"><path
           d="m 276.484,246.426 -6.554,-2.41 6.554,-2.411 c -1.046,1.422 -1.039,3.372 0,4.821 z"
           style="fill:#000000;fill-opacity:1;fill-rule:evenodd;stroke:#000000;stroke-width:0.375;stroke-linecap:butt;stroke-linejoin:round;stroke-miterlimit:4;stroke-dasharray:none;stroke-opacity:1"
           id="path258"
           inkscape:connector-curvature="0" /></g><g
         id="g260"
         transform="scale(-1)"><path
           d="m -299.68,-244.016 2,-2 -7,2 7,2 z"
           style="fill:#000000;fill-opacity:1;fill-rule:evenodd;stroke:#000000;stroke-width:0.533333;stroke-linecap:butt;stroke-linejoin:miter;stroke-miterlimit:4;stroke-dasharray:none;stroke-opacity:1"
           id="path262"
           inkscape:connector-curvature="0" /></g><text
         transform="translate(324.29418,427.60092)"
         style="font-variant:normal;font-weight:normal;font-size:20.00000191px;font-family:'DejaVu Sans';-inkscape-font-specification:DejaVuSans;writing-mode:lr-tb;fill:#000000;fill-opacity:1;fill-rule:nonzero;stroke:none"
         id="text272"><tspan
           x="0 12.620001 19.34 31.960001 38.300003"
           y="0"
           sodipodi:role="line"
           id="tspan264">E/S 0</tspan><tspan
           x="203.06833 215.68832 222.40833 235.02834 241.36833"
           y="61.951664"
           sodipodi:role="line"
           id="tspan266">E/S 1</tspan><tspan
           x="396.8916 409.5116 416.2316 428.85159 435.19159"
           y="-1.1635201"
           sodipodi:role="line"
           id="tspan268">E/S 2</tspan><tspan
           x="198.7113 211.33131 218.05132 230.67131 237.01131"
           y="-410.17401"
           sodipodi:role="line"
           id="tspan270">E/S 3</tspan></text>
<text
         transform="translate(271.94718,237.19673)"
         style="font-variant:normal;font-weight:normal;font-size:13.99999905px;font-family:'DejaVu Sans';-inkscape-font-specification:DejaVuSans;writing-mode:lr-tb;fill:#000000;fill-opacity:1;fill-rule:nonzero;stroke:none"
         id="text276"><tspan
           x="0 10.779999 21.559998"
           y="0"
           sodipodi:role="line"
           id="tspan274">DDR</tspan></text>
<g
         id="g278"
         transform="scale(0.698554,1)"><path
           d="m 6.42,208.934 h 363.658 c 3.137,0 5.67,2.531 5.67,5.671 v 33.661 c 0,3.14 -2.533,5.668 -5.67,5.668 H 6.42 c -3.143,0 -5.671,-2.528 -5.671,-5.668 v -33.661 c 0,-3.14 2.528,-5.671 5.671,-5.671 z"
           style="fill:#833548;fill-opacity:1;fill-rule:nonzero;stroke:#140000;stroke-width:1.5;stroke-linecap:butt;stroke-linejoin:miter;stroke-miterlimit:4;stroke-dasharray:none;stroke-opacity:1"
           id="path280"
           inkscape:connector-curvature="0" /></g><text
         transform="translate(83.635773,200.6092)"
         style="font-variant:normal;font-weight:normal;font-size:29.99999809px;font-family:'DejaVu Sans';-inkscape-font-specification:DejaVuSans;writing-mode:lr-tb;fill:#000000;fill-opacity:1;fill-rule:nonzero;stroke:none"
         id="text284"><tspan
           x="0 23.099998 46.199997 67.019997"
           y="0"
           sodipodi:role="line"
           id="tspan282">DDR0</tspan></text>
<g
         id="g286"><path
           d="m 74.039,208.539 c 0,45.543 0,45.543 0,45.543"
           style="fill:none;stroke:#000000;stroke-width:0.75;stroke-linecap:butt;stroke-linejoin:miter;stroke-miterlimit:4;stroke-dasharray:none;stroke-opacity:1"
           id="path288"
           inkscape:connector-curvature="0" /></g><g
         id="g290"><path
           d="m 178.625,208.258 c 0,45.543 0,45.543 0,45.543"
           style="fill:none;stroke:#000000;stroke-width:0.75;stroke-linecap:butt;stroke-linejoin:miter;stroke-miterlimit:4;stroke-dasharray:none;stroke-opacity:1"
           id="path292"
           inkscape:connector-curvature="0" /></g><text
         transform="translate(75.172794,238.6161)"
         style="font-variant:normal;font-weight:normal;font-size:18px;font-family:'DejaVu Sans';-inkscape-font-specification:DejaVuSans;writing-mode:lr-tb;fill:#000000;fill-opacity:1;fill-rule:nonzero;stroke:none"
         id="text296"><tspan
           x="0 11.412 22.77 36.647999 52.164001 63.521999 76.986 87.966003"
           y="0"
           sodipodi:role="line"
           id="tspan294">SEGMENTO</tspan></text>
<text
         transform="translate(146.99454,439.95877)"
         style="font-style:oblique;font-variant:normal;font-size:19.99999809px;font-family:'DejaVu Sans';-inkscape-font-specification:DejaVuSans-Oblique;writing-mode:lr-tb;fill:#000000;fill-opacity:1;fill-rule:nonzero;stroke:none"
         id="text300"><tspan
           x="0 13.679998 24.079998 35.899998 48.499996 59.479996 65.819992 72.159996 84.219994 96.87999 104.71999 111.43999 126.91999 139.21999"
           y="0"
           sodipodi:role="line"
           id="tspan298">Async. Put/Get</tspan></text>
<g
         id="g302"><path
           d="m 353.73,284.961 c -205.769,77.883 -221.152,-25 -221.152,-25"
           style="fill:none;stroke:#686868;stroke-width:3.9000001;stroke-linecap:butt;stroke-linejoin:round;stroke-miterlimit:4;stroke-dasharray:none;stroke-opacity:1"
           id="path304"
           inkscape:connector-curvature="0" /></g><g
         id="g306"
         transform="matrix(-1,0.378505,-0.378505,-1,0,0)"><path
           d="m -211.487,-366.361 c 0,2.012 -1.634,3.647 -3.646,3.647 -2.015,-10e-4 -3.647,-1.634 -3.646,-3.65 0,-2.011 1.634,-3.647 3.646,-3.647 2.012,0 3.647,1.635 3.646,3.65 z"
           style="fill:#686868;fill-opacity:1;fill-rule:evenodd;stroke:#686868;stroke-width:0.97265702;stroke-linecap:butt;stroke-linejoin:miter;stroke-miterlimit:4;stroke-dasharray:none;stroke-opacity:1"
           id="path308"
           inkscape:connector-curvature="0" /></g><g
         id="g310"
         transform="matrix(0.149533,1,-1,0.149533,0,0)"><path
           d="m 278.295,-91.655 3.858,-3.857 -13.502,3.856 13.501,3.859 z"
           style="fill:#686868;fill-opacity:1;fill-rule:evenodd;stroke:#686868;stroke-width:1.02856398;stroke-linecap:butt;stroke-linejoin:miter;stroke-miterlimit:4;stroke-dasharray:none;stroke-opacity:1"
           id="path312"
           inkscape:connector-curvature="0" /></g><text
         style="font-variant:normal;font-weight:normal;font-size:20px;font-family:'DejaVu Sans';-inkscape-font-specification:DejaVuSans;writing-mode:lr-tb;fill:#000000;fill-opacity:1;fill-rule:nonzero;stroke:none"
         id="text316"
         x="74.115082"
         y="333.29871"><tspan
           x="74.115082 86.835083 93.175087 99.515083 113.47508 121.75508 127.29508 139.53508 150.51509 162.75508 174.97508 181.31508 193.99509 206.21509 212.55508 222.95508 235.25508 247.93509 267.4751 279.77509 287.61508"
           y="333.29871"
           sodipodi:role="line"
           id="tspan314">1. Criação do segmeto</tspan></text>
<g
         id="g318"><path
           d="M 673.359,287.445 C 261.035,68.758 185.891,186.293 185.891,186.293"
           style="fill:none;stroke:#686868;stroke-width:3.9000001;stroke-linecap:butt;stroke-linejoin:miter;stroke-miterlimit:4;stroke-dasharray:none;stroke-opacity:1"
           id="path320"
           inkscape:connector-curvature="0" /></g><g
         id="g322"
         transform="matrix(-1,-0.530374,0.530374,-1,0,0)"><path
           d="m -637.76,54.388 c -0.003,3.802 -3.087,6.891 -6.892,6.89 -3.804,0.002 -6.892,-3.087 -6.89,-6.893 0,-3.801 3.089,-6.888 6.889,-6.888 3.804,-0.002 6.892,3.087 6.893,6.891 z"
           style="fill:#686868;fill-opacity:1;fill-rule:evenodd;stroke:#686868;stroke-width:1.83754694;stroke-linecap:butt;stroke-linejoin:miter;stroke-miterlimit:4;stroke-dasharray:none;stroke-opacity:1"
           id="path324"
           inkscape:connector-curvature="0" /></g><g
         id="g326"
         transform="matrix(0.639344,-1,1,0.639344,0,0)"><path
           d="m -43.931,216.497 3.286,-3.284 -11.5,3.286 11.499,3.285 z"
           style="fill:#686868;fill-opacity:1;fill-rule:evenodd;stroke:#686868;stroke-width:0.87622303;stroke-linecap:butt;stroke-linejoin:miter;stroke-miterlimit:4;stroke-dasharray:none;stroke-opacity:1"
           id="path328"
           inkscape:connector-curvature="0" /></g><text
         style="font-variant:normal;font-weight:normal;font-size:20px;font-family:'DejaVu Sans';-inkscape-font-specification:DejaVuSans;writing-mode:lr-tb;fill:#000000;fill-opacity:1;fill-rule:nonzero;stroke:none"
         id="text332"
         x="19.878407"
         y="147.00565"><tspan
           x="19.878407 32.598408 38.938408 45.278408 59.238407 64.778412 76.998405 89.658409 101.95841 114.63841 126.93841 146.41841 152.75841 165.4384 177.6584 183.9984 194.39841 206.69841 219.3784 238.8584 251.1584 263.87842 271.71841"
           y="147.00565"
           sodipodi:role="line"
           id="tspan330">2. Clonagem do segmento</tspan></text>
<g
         id="g334"><path
           d="m 673.359,287.32 c -674.437,420.793 -626,-20.519 -626,-20.519"
           style="fill:none;stroke:#686868;stroke-width:4.22201395;stroke-linecap:butt;stroke-linejoin:miter;stroke-miterlimit:4;stroke-dasharray:none;stroke-opacity:1"
           id="path336"
           inkscape:connector-curvature="0" /></g><g
         id="g338"
         transform="matrix(-1,0.623918,-0.623918,-1,0,0)"><path
           d="m -348.631,-509.216 c 0.002,3.954 -3.209,7.166 -7.161,7.164 -3.957,0 -7.166,-3.209 -7.168,-7.163 0.003,-3.955 3.212,-7.164 7.166,-7.166 3.953,0.002 7.164,3.212 7.163,7.165 z"
           style="fill:#686868;fill-opacity:1;fill-rule:evenodd;stroke:#686868;stroke-width:1.91040099;stroke-linecap:butt;stroke-linejoin:miter;stroke-miterlimit:4;stroke-dasharray:none;stroke-opacity:1"
           id="path340"
           inkscape:connector-curvature="0" /></g><g
         id="g342"
         transform="matrix(-0.109758,1,-1,-0.109758,0,0)"><path
           d="m 263.524,-75.732 4.196,-4.195 -14.688,4.198 14.687,4.196 z"
           style="fill:#686868;fill-opacity:1;fill-rule:evenodd;stroke:#686868;stroke-width:1.11915004;stroke-linecap:butt;stroke-linejoin:miter;stroke-miterlimit:4;stroke-dasharray:none;stroke-opacity:1"
           id="path344"
           inkscape:connector-curvature="0" /></g><text
         transform="translate(122.59352,439.73929)"
         style="font-variant:normal;font-weight:normal;font-size:20px;font-family:'DejaVu Sans';-inkscape-font-specification:DejaVuSans;writing-mode:lr-tb;fill:#000000;fill-opacity:1;fill-rule:nonzero;stroke:none"
         id="text348"><tspan
           x="0 12.72"
           y="0"
           sodipodi:role="line"
           id="tspan346">3.</tspan></text>
</g></g></svg>